# xmcd CD database file
#
# Track frame offsets:
#	150
#	11580
#	26745
#	43706
#	50587
#	63580
#	76670
#	94774
#	114396
#	122545
#	137307
#
# Disc length: 2048 seconds
#
# Revision: 0
# Processed by: cddbd v1.5.2PL0 Copyright (c) Steve Scherf et al.
# Submitted via: CDex 1.51
#
DISCID=8407fe0b
DTITLE=Matt Harding - Hello Africa
DYEAR=2007
DGENRE=Jazz
TTITLE0=She Don't Know (What She Wants)
TTITLE1=There Must Be Love
TTITLE2=Shanghai
TTITLE3=Hello Africa
TTITLE4=Ain't Nothin' Better
TTITLE5=Let Love do the Rest
TTITLE6=Waitin' for the Plane
TTITLE7=CC Rider
TTITLE8=I Will
TTITLE9=The Wind
TTITLE10=All I Feel is Down
EXTD=YEAR: 2007
EXTT0=
EXTT1=
EXTT2=
EXTT3=
EXTT4=
EXTT5=
EXTT6=
EXTT7=
EXTT8=
EXTT9=
EXTT10=
PLAYORDER=
